<svg aria-roledescription="er" role="graphics-document document" viewBox="0 0 552.7677612304688 810" style="max-width: 552.768px; background-color: white;" xmlns:xlink="http://www.w3.org/1999/xlink" xmlns="http://www.w3.org/2000/svg" width="100%" id="mermaid-0"><style>#mermaid-0{font-family:"trebuchet ms",verdana,arial,sans-serif;font-size:16px;fill:#000000;}#mermaid-0 .error-icon{fill:#552222;}#mermaid-0 .error-text{fill:#552222;stroke:#552222;}#mermaid-0 .edge-thickness-normal{stroke-width:2px;}#mermaid-0 .edge-thickness-thick{stroke-width:3.5px;}#mermaid-0 .edge-pattern-solid{stroke-dasharray:0;}#mermaid-0 .edge-pattern-dashed{stroke-dasharray:3;}#mermaid-0 .edge-pattern-dotted{stroke-dasharray:2;}#mermaid-0 .marker{fill:#000000;stroke:#000000;}#mermaid-0 .marker.cross{stroke:#000000;}#mermaid-0 svg{font-family:"trebuchet ms",verdana,arial,sans-serif;font-size:16px;}#mermaid-0 .entityBox{fill:#cde498;stroke:#13540c;}#mermaid-0 .attributeBoxOdd{fill:#ffffff;stroke:#13540c;}#mermaid-0 .attributeBoxEven{fill:#f2f2f2;stroke:#13540c;}#mermaid-0 .relationshipLabelBox{fill:hsl(78.1578947368, 58.4615384615%, 84.5098039216%);opacity:0.7;background-color:hsl(78.1578947368, 58.4615384615%, 84.5098039216%);}#mermaid-0 .relationshipLabelBox rect{opacity:0.5;}#mermaid-0 .relationshipLine{stroke:#000000;}#mermaid-0 .entityTitleText{text-anchor:middle;font-size:18px;fill:#000000;}#mermaid-0 :root{--mermaid-font-family:"trebuchet ms",verdana,arial,sans-serif;}</style><g/><defs><marker orient="auto" markerHeight="18" markerWidth="18" refY="9" refX="0" id="ONLY_ONE_START"><path d="M9,0 L9,18 M15,0 L15,18" fill="none" stroke="gray"/></marker></defs><defs><marker orient="auto" markerHeight="18" markerWidth="18" refY="9" refX="18" id="ONLY_ONE_END"><path d="M3,0 L3,18 M9,0 L9,18" fill="none" stroke="gray"/></marker></defs><defs><marker orient="auto" markerHeight="18" markerWidth="30" refY="9" refX="0" id="ZERO_OR_ONE_START"><circle r="6" cy="9" cx="21" fill="white" stroke="gray"/><path d="M9,0 L9,18" fill="none" stroke="gray"/></marker></defs><defs><marker orient="auto" markerHeight="18" markerWidth="30" refY="9" refX="30" id="ZERO_OR_ONE_END"><circle r="6" cy="9" cx="9" fill="white" stroke="gray"/><path d="M21,0 L21,18" fill="none" stroke="gray"/></marker></defs><defs><marker orient="auto" markerHeight="36" markerWidth="45" refY="18" refX="18" id="ONE_OR_MORE_START"><path d="M0,18 Q 18,0 36,18 Q 18,36 0,18 M42,9 L42,27" fill="none" stroke="gray"/></marker></defs><defs><marker orient="auto" markerHeight="36" markerWidth="45" refY="18" refX="27" id="ONE_OR_MORE_END"><path d="M3,9 L3,27 M9,18 Q27,0 45,18 Q27,36 9,18" fill="none" stroke="gray"/></marker></defs><defs><marker orient="auto" markerHeight="36" markerWidth="57" refY="18" refX="18" id="ZERO_OR_MORE_START"><circle r="6" cy="18" cx="48" fill="white" stroke="gray"/><path d="M0,18 Q18,0 36,18 Q18,36 0,18" fill="none" stroke="gray"/></marker></defs><defs><marker orient="auto" markerHeight="36" markerWidth="57" refY="18" refX="39" id="ZERO_OR_MORE_END"><circle r="6" cy="18" cx="9" fill="white" stroke="gray"/><path d="M21,18 Q39,0 57,18 Q39,36 21,18" fill="none" stroke="gray"/></marker></defs><path style="stroke: gray; fill: none;" marker-start="url(#ZERO_OR_ONE_START)" marker-end="url(#ONLY_ONE_END)" d="M154.3515625,622L154.3515625,630.3333333333334C154.3515625,638.6666666666666,154.3515625,655.3333333333334,154.3515625,672C154.3515625,688.6666666666666,154.3515625,705.3333333333334,154.3515625,713.6666666666666L154.3515625,722" class="er relationshipLine"/><path style="stroke: gray; fill: none;" marker-start="url(#ZERO_OR_MORE_START)" marker-end="url(#ONLY_ONE_END)" d="M104.3515625,344L104.3515625,352.3333333333333C104.3515625,360.6666666666667,104.3515625,377.3333333333333,107.34916441846524,394C110.34676633693046,410.6666666666667,116.3419701738609,427.3333333333333,119.33957209232614,435.6666666666667L122.33717401079136,444" class="er relationshipLine"/><path style="stroke: gray; fill: none;" marker-start="url(#ZERO_OR_MORE_START)" marker-end="url(#ONLY_ONE_END)" d="M104.3515625,132L104.3515625,140.33333333333334C104.3515625,148.66666666666666,104.3515625,165.33333333333334,104.3515625,182C104.3515625,198.66666666666666,104.3515625,215.33333333333334,104.3515625,223.66666666666666L104.3515625,232" class="er relationshipLine"/><path style="stroke: gray; fill: none;" marker-start="url(#ZERO_OR_MORE_START)" marker-end="url(#ZERO_OR_ONE_END)" d="M434.8064627017615,333L439.6020601860382,343.1666666666667C444.397657670315,353.3333333333333,453.9888526388684,373.6666666666667,458.7844501231452,395.8333333333333C463.5800476074219,418,463.5800476074219,442,463.5800476074219,454L463.5800476074219,466" class="er relationshipLine"/><path style="stroke: gray; fill: none;" marker-start="url(#ZERO_OR_MORE_START)" marker-end="url(#ZERO_OR_ONE_END)" d="M357.3475198205912,333L344.6431339131961,343.1666666666667C331.938748005801,353.3333333333333,306.52997619101086,373.6666666666667,286.2254918497896,392.1666666666667C265.9210075085684,410.6666666666667,250.72081064091597,427.3333333333333,243.1207122070898,435.6666666666667L235.52061377326362,444" class="er relationshipLine"/><g transform="translate(102.13362121582031,722 )" id="entity-TrailStatus-001198b6-988c-5a8f-92a4-834152ae0ab3"><rect height="68" width="104.43588256835938" y="0" x="0" class="er entityBox"/><text style="dominant-baseline: middle; text-anchor: middle; font-size: 12px;" transform="translate(52.21794128417969,12)" y="0" x="0" id="text-entity-TrailStatus-001198b6-988c-5a8f-92a4-834152ae0ab3" class="er entityLabel">TrailStatus</text><rect height="22" width="52.21794128417969" y="24" x="0" class="er attributeBoxOdd"/><text style="dominant-baseline: middle; font-size: 10.2px;" transform="translate(5,35)" y="0" x="0" id="text-entity-TrailStatus-001198b6-988c-5a8f-92a4-834152ae0ab3-attr-1-type" class="er entityLabel">ACTIVE</text><rect height="22" width="52.21794128417969" y="24" x="52.21794128417969" class="er attributeBoxOdd"/><text style="dominant-baseline: middle; font-size: 10.2px;" transform="translate(57.21794128417969,35)" y="0" x="0" id="text-entity-TrailStatus-001198b6-988c-5a8f-92a4-834152ae0ab3-attr-1-name" class="er entityLabel">ACTIVE</text><rect height="22" width="52.21794128417969" y="46" x="0" class="er attributeBoxEven"/><text style="dominant-baseline: middle; font-size: 10.2px;" transform="translate(5,57)" y="0" x="0" id="text-entity-TrailStatus-001198b6-988c-5a8f-92a4-834152ae0ab3-attr-2-type" class="er entityLabel">INACTIVE</text><rect height="22" width="52.21794128417969" y="46" x="52.21794128417969" class="er attributeBoxEven"/><text style="dominant-baseline: middle; font-size: 10.2px;" transform="translate(57.21794128417969,57)" y="0" x="0" id="text-entity-TrailStatus-001198b6-988c-5a8f-92a4-834152ae0ab3-attr-2-name" class="er entityLabel">INACTIVE</text></g><g transform="translate(58.62159729003906,444 )" id="entity-trails-b89546d8-fbbe-5c40-86f6-82df5ac6e389"><rect height="178" width="191.45993041992188" y="0" x="0" class="er entityBox"/><text style="dominant-baseline: middle; text-anchor: middle; font-size: 12px;" transform="translate(95.72996520996094,12)" y="0" x="0" id="text-entity-trails-b89546d8-fbbe-5c40-86f6-82df5ac6e389" class="er entityLabel">trails</text><rect height="22" width="59.967498779296875" y="24" x="0" class="er attributeBoxOdd"/><text style="dominant-baseline: middle; font-size: 10.2px;" transform="translate(5,35)" y="0" x="0" id="text-entity-trails-b89546d8-fbbe-5c40-86f6-82df5ac6e389-attr-1-type" class="er entityLabel">String</text><rect height="22" width="61.59220886230469" y="24" x="59.967498779296875" class="er attributeBoxOdd"/><text style="dominant-baseline: middle; font-size: 10.2px;" transform="translate(64.96749877929688,35)" y="0" x="0" id="text-entity-trails-b89546d8-fbbe-5c40-86f6-82df5ac6e389-attr-1-name" class="er entityLabel">id</text><rect height="22" width="22.68768310546875" y="24" x="121.55970764160156" class="er attributeBoxOdd"/><text style="dominant-baseline: middle; font-size: 10.2px;" transform="translate(126.55970764160156,35)" y="0" x="0" id="text-entity-trails-b89546d8-fbbe-5c40-86f6-82df5ac6e389-attr-1-key" class="er entityLabel">PK</text><rect height="22" width="47.21253967285156" y="24" x="144.2473907470703" class="er attributeBoxOdd"/><text style="dominant-baseline: middle; font-size: 10.2px;" transform="translate(149.2473907470703,35)" y="0" x="0" id="text-entity-trails-b89546d8-fbbe-5c40-86f6-82df5ac6e389-attr-1-comment" class="er entityLabel"/><rect height="22" width="59.967498779296875" y="46" x="0" class="er attributeBoxEven"/><text style="dominant-baseline: middle; font-size: 10.2px;" transform="translate(5,57)" y="0" x="0" id="text-entity-trails-b89546d8-fbbe-5c40-86f6-82df5ac6e389-attr-2-type" class="er entityLabel">String</text><rect height="22" width="61.59220886230469" y="46" x="59.967498779296875" class="er attributeBoxEven"/><text style="dominant-baseline: middle; font-size: 10.2px;" transform="translate(64.96749877929688,57)" y="0" x="0" id="text-entity-trails-b89546d8-fbbe-5c40-86f6-82df5ac6e389-attr-2-name" class="er entityLabel">title</text><rect height="22" width="22.68768310546875" y="46" x="121.55970764160156" class="er attributeBoxEven"/><text style="dominant-baseline: middle; font-size: 10.2px;" transform="translate(126.55970764160156,57)" y="0" x="0" id="text-entity-trails-b89546d8-fbbe-5c40-86f6-82df5ac6e389-attr-2-key" class="er entityLabel"/><rect height="22" width="47.21253967285156" y="46" x="144.2473907470703" class="er attributeBoxEven"/><text style="dominant-baseline: middle; font-size: 10.2px;" transform="translate(149.2473907470703,57)" y="0" x="0" id="text-entity-trails-b89546d8-fbbe-5c40-86f6-82df5ac6e389-attr-2-comment" class="er entityLabel"/><rect height="22" width="59.967498779296875" y="68" x="0" class="er attributeBoxOdd"/><text style="dominant-baseline: middle; font-size: 10.2px;" transform="translate(5,79)" y="0" x="0" id="text-entity-trails-b89546d8-fbbe-5c40-86f6-82df5ac6e389-attr-3-type" class="er entityLabel">String</text><rect height="22" width="61.59220886230469" y="68" x="59.967498779296875" class="er attributeBoxOdd"/><text style="dominant-baseline: middle; font-size: 10.2px;" transform="translate(64.96749877929688,79)" y="0" x="0" id="text-entity-trails-b89546d8-fbbe-5c40-86f6-82df5ac6e389-attr-3-name" class="er entityLabel">description</text><rect height="22" width="22.68768310546875" y="68" x="121.55970764160156" class="er attributeBoxOdd"/><text style="dominant-baseline: middle; font-size: 10.2px;" transform="translate(126.55970764160156,79)" y="0" x="0" id="text-entity-trails-b89546d8-fbbe-5c40-86f6-82df5ac6e389-attr-3-key" class="er entityLabel"/><rect height="22" width="47.21253967285156" y="68" x="144.2473907470703" class="er attributeBoxOdd"/><text style="dominant-baseline: middle; font-size: 10.2px;" transform="translate(149.2473907470703,79)" y="0" x="0" id="text-entity-trails-b89546d8-fbbe-5c40-86f6-82df5ac6e389-attr-3-comment" class="er entityLabel">nullable</text><rect height="22" width="59.967498779296875" y="90" x="0" class="er attributeBoxEven"/><text style="dominant-baseline: middle; font-size: 10.2px;" transform="translate(5,101)" y="0" x="0" id="text-entity-trails-b89546d8-fbbe-5c40-86f6-82df5ac6e389-attr-4-type" class="er entityLabel">String</text><rect height="22" width="61.59220886230469" y="90" x="59.967498779296875" class="er attributeBoxEven"/><text style="dominant-baseline: middle; font-size: 10.2px;" transform="translate(64.96749877929688,101)" y="0" x="0" id="text-entity-trails-b89546d8-fbbe-5c40-86f6-82df5ac6e389-attr-4-name" class="er entityLabel">slug</text><rect height="22" width="22.68768310546875" y="90" x="121.55970764160156" class="er attributeBoxEven"/><text style="dominant-baseline: middle; font-size: 10.2px;" transform="translate(126.55970764160156,101)" y="0" x="0" id="text-entity-trails-b89546d8-fbbe-5c40-86f6-82df5ac6e389-attr-4-key" class="er entityLabel"/><rect height="22" width="47.21253967285156" y="90" x="144.2473907470703" class="er attributeBoxEven"/><text style="dominant-baseline: middle; font-size: 10.2px;" transform="translate(149.2473907470703,101)" y="0" x="0" id="text-entity-trails-b89546d8-fbbe-5c40-86f6-82df5ac6e389-attr-4-comment" class="er entityLabel"/><rect height="22" width="59.967498779296875" y="112" x="0" class="er attributeBoxOdd"/><text style="dominant-baseline: middle; font-size: 10.2px;" transform="translate(5,123)" y="0" x="0" id="text-entity-trails-b89546d8-fbbe-5c40-86f6-82df5ac6e389-attr-5-type" class="er entityLabel">TrailStatus</text><rect height="22" width="61.59220886230469" y="112" x="59.967498779296875" class="er attributeBoxOdd"/><text style="dominant-baseline: middle; font-size: 10.2px;" transform="translate(64.96749877929688,123)" y="0" x="0" id="text-entity-trails-b89546d8-fbbe-5c40-86f6-82df5ac6e389-attr-5-name" class="er entityLabel">status</text><rect height="22" width="22.68768310546875" y="112" x="121.55970764160156" class="er attributeBoxOdd"/><text style="dominant-baseline: middle; font-size: 10.2px;" transform="translate(126.55970764160156,123)" y="0" x="0" id="text-entity-trails-b89546d8-fbbe-5c40-86f6-82df5ac6e389-attr-5-key" class="er entityLabel"/><rect height="22" width="47.21253967285156" y="112" x="144.2473907470703" class="er attributeBoxOdd"/><text style="dominant-baseline: middle; font-size: 10.2px;" transform="translate(149.2473907470703,123)" y="0" x="0" id="text-entity-trails-b89546d8-fbbe-5c40-86f6-82df5ac6e389-attr-5-comment" class="er entityLabel"/><rect height="22" width="59.967498779296875" y="134" x="0" class="er attributeBoxEven"/><text style="dominant-baseline: middle; font-size: 10.2px;" transform="translate(5,145)" y="0" x="0" id="text-entity-trails-b89546d8-fbbe-5c40-86f6-82df5ac6e389-attr-6-type" class="er entityLabel">DateTime</text><rect height="22" width="61.59220886230469" y="134" x="59.967498779296875" class="er attributeBoxEven"/><text style="dominant-baseline: middle; font-size: 10.2px;" transform="translate(64.96749877929688,145)" y="0" x="0" id="text-entity-trails-b89546d8-fbbe-5c40-86f6-82df5ac6e389-attr-6-name" class="er entityLabel">created_At</text><rect height="22" width="22.68768310546875" y="134" x="121.55970764160156" class="er attributeBoxEven"/><text style="dominant-baseline: middle; font-size: 10.2px;" transform="translate(126.55970764160156,145)" y="0" x="0" id="text-entity-trails-b89546d8-fbbe-5c40-86f6-82df5ac6e389-attr-6-key" class="er entityLabel"/><rect height="22" width="47.21253967285156" y="134" x="144.2473907470703" class="er attributeBoxEven"/><text style="dominant-baseline: middle; font-size: 10.2px;" transform="translate(149.2473907470703,145)" y="0" x="0" id="text-entity-trails-b89546d8-fbbe-5c40-86f6-82df5ac6e389-attr-6-comment" class="er entityLabel"/><rect height="22" width="59.967498779296875" y="156" x="0" class="er attributeBoxOdd"/><text style="dominant-baseline: middle; font-size: 10.2px;" transform="translate(5,167)" y="0" x="0" id="text-entity-trails-b89546d8-fbbe-5c40-86f6-82df5ac6e389-attr-7-type" class="er entityLabel">DateTime</text><rect height="22" width="61.59220886230469" y="156" x="59.967498779296875" class="er attributeBoxOdd"/><text style="dominant-baseline: middle; font-size: 10.2px;" transform="translate(64.96749877929688,167)" y="0" x="0" id="text-entity-trails-b89546d8-fbbe-5c40-86f6-82df5ac6e389-attr-7-name" class="er entityLabel">update_At</text><rect height="22" width="22.68768310546875" y="156" x="121.55970764160156" class="er attributeBoxOdd"/><text style="dominant-baseline: middle; font-size: 10.2px;" transform="translate(126.55970764160156,167)" y="0" x="0" id="text-entity-trails-b89546d8-fbbe-5c40-86f6-82df5ac6e389-attr-7-key" class="er entityLabel"/><rect height="22" width="47.21253967285156" y="156" x="144.2473907470703" class="er attributeBoxOdd"/><text style="dominant-baseline: middle; font-size: 10.2px;" transform="translate(149.2473907470703,167)" y="0" x="0" id="text-entity-trails-b89546d8-fbbe-5c40-86f6-82df5ac6e389-attr-7-comment" class="er entityLabel"/></g><g transform="translate(20,232 )" id="entity-Course-e6435c0c-5f73-5cd3-80c6-be59c059830f"><rect height="112" width="168.703125" y="0" x="0" class="er entityBox"/><text style="dominant-baseline: middle; text-anchor: middle; font-size: 12px;" transform="translate(84.3515625,12)" y="0" x="0" id="text-entity-Course-e6435c0c-5f73-5cd3-80c6-be59c059830f" class="er entityLabel">Course</text><rect height="22" width="37.39605712890625" y="24" x="0" class="er attributeBoxOdd"/><text style="dominant-baseline: middle; font-size: 10.2px;" transform="translate(5,35)" y="0" x="0" id="text-entity-Course-e6435c0c-5f73-5cd3-80c6-be59c059830f-attr-1-type" class="er entityLabel">String</text><rect height="22" width="61.40684509277344" y="24" x="37.39605712890625" class="er attributeBoxOdd"/><text style="dominant-baseline: middle; font-size: 10.2px;" transform="translate(42.39605712890625,35)" y="0" x="0" id="text-entity-Course-e6435c0c-5f73-5cd3-80c6-be59c059830f-attr-1-name" class="er entityLabel">id</text><rect height="22" width="22.68768310546875" y="24" x="98.80290222167969" class="er attributeBoxOdd"/><text style="dominant-baseline: middle; font-size: 10.2px;" transform="translate(103.80290222167969,35)" y="0" x="0" id="text-entity-Course-e6435c0c-5f73-5cd3-80c6-be59c059830f-attr-1-key" class="er entityLabel">PK</text><rect height="22" width="47.21253967285156" y="24" x="121.49058532714844" class="er attributeBoxOdd"/><text style="dominant-baseline: middle; font-size: 10.2px;" transform="translate(126.49058532714844,35)" y="0" x="0" id="text-entity-Course-e6435c0c-5f73-5cd3-80c6-be59c059830f-attr-1-comment" class="er entityLabel"/><rect height="22" width="37.39605712890625" y="46" x="0" class="er attributeBoxEven"/><text style="dominant-baseline: middle; font-size: 10.2px;" transform="translate(5,57)" y="0" x="0" id="text-entity-Course-e6435c0c-5f73-5cd3-80c6-be59c059830f-attr-2-type" class="er entityLabel">String</text><rect height="22" width="61.40684509277344" y="46" x="37.39605712890625" class="er attributeBoxEven"/><text style="dominant-baseline: middle; font-size: 10.2px;" transform="translate(42.39605712890625,57)" y="0" x="0" id="text-entity-Course-e6435c0c-5f73-5cd3-80c6-be59c059830f-attr-2-name" class="er entityLabel">title</text><rect height="22" width="22.68768310546875" y="46" x="98.80290222167969" class="er attributeBoxEven"/><text style="dominant-baseline: middle; font-size: 10.2px;" transform="translate(103.80290222167969,57)" y="0" x="0" id="text-entity-Course-e6435c0c-5f73-5cd3-80c6-be59c059830f-attr-2-key" class="er entityLabel"/><rect height="22" width="47.21253967285156" y="46" x="121.49058532714844" class="er attributeBoxEven"/><text style="dominant-baseline: middle; font-size: 10.2px;" transform="translate(126.49058532714844,57)" y="0" x="0" id="text-entity-Course-e6435c0c-5f73-5cd3-80c6-be59c059830f-attr-2-comment" class="er entityLabel"/><rect height="22" width="37.39605712890625" y="68" x="0" class="er attributeBoxOdd"/><text style="dominant-baseline: middle; font-size: 10.2px;" transform="translate(5,79)" y="0" x="0" id="text-entity-Course-e6435c0c-5f73-5cd3-80c6-be59c059830f-attr-3-type" class="er entityLabel">String</text><rect height="22" width="61.40684509277344" y="68" x="37.39605712890625" class="er attributeBoxOdd"/><text style="dominant-baseline: middle; font-size: 10.2px;" transform="translate(42.39605712890625,79)" y="0" x="0" id="text-entity-Course-e6435c0c-5f73-5cd3-80c6-be59c059830f-attr-3-name" class="er entityLabel">description</text><rect height="22" width="22.68768310546875" y="68" x="98.80290222167969" class="er attributeBoxOdd"/><text style="dominant-baseline: middle; font-size: 10.2px;" transform="translate(103.80290222167969,79)" y="0" x="0" id="text-entity-Course-e6435c0c-5f73-5cd3-80c6-be59c059830f-attr-3-key" class="er entityLabel"/><rect height="22" width="47.21253967285156" y="68" x="121.49058532714844" class="er attributeBoxOdd"/><text style="dominant-baseline: middle; font-size: 10.2px;" transform="translate(126.49058532714844,79)" y="0" x="0" id="text-entity-Course-e6435c0c-5f73-5cd3-80c6-be59c059830f-attr-3-comment" class="er entityLabel">nullable</text><rect height="22" width="37.39605712890625" y="90" x="0" class="er attributeBoxEven"/><text style="dominant-baseline: middle; font-size: 10.2px;" transform="translate(5,101)" y="0" x="0" id="text-entity-Course-e6435c0c-5f73-5cd3-80c6-be59c059830f-attr-4-type" class="er entityLabel">String</text><rect height="22" width="61.40684509277344" y="90" x="37.39605712890625" class="er attributeBoxEven"/><text style="dominant-baseline: middle; font-size: 10.2px;" transform="translate(42.39605712890625,101)" y="0" x="0" id="text-entity-Course-e6435c0c-5f73-5cd3-80c6-be59c059830f-attr-4-name" class="er entityLabel">slug</text><rect height="22" width="22.68768310546875" y="90" x="98.80290222167969" class="er attributeBoxEven"/><text style="dominant-baseline: middle; font-size: 10.2px;" transform="translate(103.80290222167969,101)" y="0" x="0" id="text-entity-Course-e6435c0c-5f73-5cd3-80c6-be59c059830f-attr-4-key" class="er entityLabel"/><rect height="22" width="47.21253967285156" y="90" x="121.49058532714844" class="er attributeBoxEven"/><text style="dominant-baseline: middle; font-size: 10.2px;" transform="translate(126.49058532714844,101)" y="0" x="0" id="text-entity-Course-e6435c0c-5f73-5cd3-80c6-be59c059830f-attr-4-comment" class="er entityLabel"/></g><g transform="translate(20,20 )" id="entity-Lesson-3cb60e37-9049-5546-a7d4-adf21eecc6d3"><rect height="112" width="168.703125" y="0" x="0" class="er entityBox"/><text style="dominant-baseline: middle; text-anchor: middle; font-size: 12px;" transform="translate(84.3515625,12)" y="0" x="0" id="text-entity-Lesson-3cb60e37-9049-5546-a7d4-adf21eecc6d3" class="er entityLabel">Lesson</text><rect height="22" width="37.39605712890625" y="24" x="0" class="er attributeBoxOdd"/><text style="dominant-baseline: middle; font-size: 10.2px;" transform="translate(5,35)" y="0" x="0" id="text-entity-Lesson-3cb60e37-9049-5546-a7d4-adf21eecc6d3-attr-1-type" class="er entityLabel">String</text><rect height="22" width="61.40684509277344" y="24" x="37.39605712890625" class="er attributeBoxOdd"/><text style="dominant-baseline: middle; font-size: 10.2px;" transform="translate(42.39605712890625,35)" y="0" x="0" id="text-entity-Lesson-3cb60e37-9049-5546-a7d4-adf21eecc6d3-attr-1-name" class="er entityLabel">id</text><rect height="22" width="22.68768310546875" y="24" x="98.80290222167969" class="er attributeBoxOdd"/><text style="dominant-baseline: middle; font-size: 10.2px;" transform="translate(103.80290222167969,35)" y="0" x="0" id="text-entity-Lesson-3cb60e37-9049-5546-a7d4-adf21eecc6d3-attr-1-key" class="er entityLabel">PK</text><rect height="22" width="47.21253967285156" y="24" x="121.49058532714844" class="er attributeBoxOdd"/><text style="dominant-baseline: middle; font-size: 10.2px;" transform="translate(126.49058532714844,35)" y="0" x="0" id="text-entity-Lesson-3cb60e37-9049-5546-a7d4-adf21eecc6d3-attr-1-comment" class="er entityLabel"/><rect height="22" width="37.39605712890625" y="46" x="0" class="er attributeBoxEven"/><text style="dominant-baseline: middle; font-size: 10.2px;" transform="translate(5,57)" y="0" x="0" id="text-entity-Lesson-3cb60e37-9049-5546-a7d4-adf21eecc6d3-attr-2-type" class="er entityLabel">String</text><rect height="22" width="61.40684509277344" y="46" x="37.39605712890625" class="er attributeBoxEven"/><text style="dominant-baseline: middle; font-size: 10.2px;" transform="translate(42.39605712890625,57)" y="0" x="0" id="text-entity-Lesson-3cb60e37-9049-5546-a7d4-adf21eecc6d3-attr-2-name" class="er entityLabel">title</text><rect height="22" width="22.68768310546875" y="46" x="98.80290222167969" class="er attributeBoxEven"/><text style="dominant-baseline: middle; font-size: 10.2px;" transform="translate(103.80290222167969,57)" y="0" x="0" id="text-entity-Lesson-3cb60e37-9049-5546-a7d4-adf21eecc6d3-attr-2-key" class="er entityLabel"/><rect height="22" width="47.21253967285156" y="46" x="121.49058532714844" class="er attributeBoxEven"/><text style="dominant-baseline: middle; font-size: 10.2px;" transform="translate(126.49058532714844,57)" y="0" x="0" id="text-entity-Lesson-3cb60e37-9049-5546-a7d4-adf21eecc6d3-attr-2-comment" class="er entityLabel"/><rect height="22" width="37.39605712890625" y="68" x="0" class="er attributeBoxOdd"/><text style="dominant-baseline: middle; font-size: 10.2px;" transform="translate(5,79)" y="0" x="0" id="text-entity-Lesson-3cb60e37-9049-5546-a7d4-adf21eecc6d3-attr-3-type" class="er entityLabel">String</text><rect height="22" width="61.40684509277344" y="68" x="37.39605712890625" class="er attributeBoxOdd"/><text style="dominant-baseline: middle; font-size: 10.2px;" transform="translate(42.39605712890625,79)" y="0" x="0" id="text-entity-Lesson-3cb60e37-9049-5546-a7d4-adf21eecc6d3-attr-3-name" class="er entityLabel">description</text><rect height="22" width="22.68768310546875" y="68" x="98.80290222167969" class="er attributeBoxOdd"/><text style="dominant-baseline: middle; font-size: 10.2px;" transform="translate(103.80290222167969,79)" y="0" x="0" id="text-entity-Lesson-3cb60e37-9049-5546-a7d4-adf21eecc6d3-attr-3-key" class="er entityLabel"/><rect height="22" width="47.21253967285156" y="68" x="121.49058532714844" class="er attributeBoxOdd"/><text style="dominant-baseline: middle; font-size: 10.2px;" transform="translate(126.49058532714844,79)" y="0" x="0" id="text-entity-Lesson-3cb60e37-9049-5546-a7d4-adf21eecc6d3-attr-3-comment" class="er entityLabel">nullable</text><rect height="22" width="37.39605712890625" y="90" x="0" class="er attributeBoxEven"/><text style="dominant-baseline: middle; font-size: 10.2px;" transform="translate(5,101)" y="0" x="0" id="text-entity-Lesson-3cb60e37-9049-5546-a7d4-adf21eecc6d3-attr-4-type" class="er entityLabel">String</text><rect height="22" width="61.40684509277344" y="90" x="37.39605712890625" class="er attributeBoxEven"/><text style="dominant-baseline: middle; font-size: 10.2px;" transform="translate(42.39605712890625,101)" y="0" x="0" id="text-entity-Lesson-3cb60e37-9049-5546-a7d4-adf21eecc6d3-attr-4-name" class="er entityLabel">slug</text><rect height="22" width="22.68768310546875" y="90" x="98.80290222167969" class="er attributeBoxEven"/><text style="dominant-baseline: middle; font-size: 10.2px;" transform="translate(103.80290222167969,101)" y="0" x="0" id="text-entity-Lesson-3cb60e37-9049-5546-a7d4-adf21eecc6d3-attr-4-key" class="er entityLabel"/><rect height="22" width="47.21253967285156" y="90" x="121.49058532714844" class="er attributeBoxEven"/><text style="dominant-baseline: middle; font-size: 10.2px;" transform="translate(126.49058532714844,101)" y="0" x="0" id="text-entity-Lesson-3cb60e37-9049-5546-a7d4-adf21eecc6d3-attr-4-comment" class="er entityLabel"/></g><g transform="translate(394.39232635498047,466 )" id="entity-students-1a328c67-5d59-56d0-bf8f-611c89a8fa4f"><rect height="134" width="138.3754425048828" y="0" x="0" class="er entityBox"/><text style="dominant-baseline: middle; text-anchor: middle; font-size: 12px;" transform="translate(69.1877212524414,12)" y="0" x="0" id="text-entity-students-1a328c67-5d59-56d0-bf8f-611c89a8fa4f" class="er entityLabel">students</text><rect height="22" width="54.095550537109375" y="24" x="0" class="er attributeBoxOdd"/><text style="dominant-baseline: middle; font-size: 10.2px;" transform="translate(5,35)" y="0" x="0" id="text-entity-students-1a328c67-5d59-56d0-bf8f-611c89a8fa4f-attr-1-type" class="er entityLabel">String</text><rect height="22" width="61.59220886230469" y="24" x="54.095550537109375" class="er attributeBoxOdd"/><text style="dominant-baseline: middle; font-size: 10.2px;" transform="translate(59.095550537109375,35)" y="0" x="0" id="text-entity-students-1a328c67-5d59-56d0-bf8f-611c89a8fa4f-attr-1-name" class="er entityLabel">id</text><rect height="22" width="22.68768310546875" y="24" x="115.68775939941406" class="er attributeBoxOdd"/><text style="dominant-baseline: middle; font-size: 10.2px;" transform="translate(120.68775939941406,35)" y="0" x="0" id="text-entity-students-1a328c67-5d59-56d0-bf8f-611c89a8fa4f-attr-1-key" class="er entityLabel">PK</text><rect height="22" width="54.095550537109375" y="46" x="0" class="er attributeBoxEven"/><text style="dominant-baseline: middle; font-size: 10.2px;" transform="translate(5,57)" y="0" x="0" id="text-entity-students-1a328c67-5d59-56d0-bf8f-611c89a8fa4f-attr-2-type" class="er entityLabel">String</text><rect height="22" width="61.59220886230469" y="46" x="54.095550537109375" class="er attributeBoxEven"/><text style="dominant-baseline: middle; font-size: 10.2px;" transform="translate(59.095550537109375,57)" y="0" x="0" id="text-entity-students-1a328c67-5d59-56d0-bf8f-611c89a8fa4f-attr-2-name" class="er entityLabel">name</text><rect height="22" width="22.68768310546875" y="46" x="115.68775939941406" class="er attributeBoxEven"/><text style="dominant-baseline: middle; font-size: 10.2px;" transform="translate(120.68775939941406,57)" y="0" x="0" id="text-entity-students-1a328c67-5d59-56d0-bf8f-611c89a8fa4f-attr-2-key" class="er entityLabel"/><rect height="22" width="54.095550537109375" y="68" x="0" class="er attributeBoxOdd"/><text style="dominant-baseline: middle; font-size: 10.2px;" transform="translate(5,79)" y="0" x="0" id="text-entity-students-1a328c67-5d59-56d0-bf8f-611c89a8fa4f-attr-3-type" class="er entityLabel">String</text><rect height="22" width="61.59220886230469" y="68" x="54.095550537109375" class="er attributeBoxOdd"/><text style="dominant-baseline: middle; font-size: 10.2px;" transform="translate(59.095550537109375,79)" y="0" x="0" id="text-entity-students-1a328c67-5d59-56d0-bf8f-611c89a8fa4f-attr-3-name" class="er entityLabel">email</text><rect height="22" width="22.68768310546875" y="68" x="115.68775939941406" class="er attributeBoxOdd"/><text style="dominant-baseline: middle; font-size: 10.2px;" transform="translate(120.68775939941406,79)" y="0" x="0" id="text-entity-students-1a328c67-5d59-56d0-bf8f-611c89a8fa4f-attr-3-key" class="er entityLabel"/><rect height="22" width="54.095550537109375" y="90" x="0" class="er attributeBoxEven"/><text style="dominant-baseline: middle; font-size: 10.2px;" transform="translate(5,101)" y="0" x="0" id="text-entity-students-1a328c67-5d59-56d0-bf8f-611c89a8fa4f-attr-4-type" class="er entityLabel">DateTime</text><rect height="22" width="61.59220886230469" y="90" x="54.095550537109375" class="er attributeBoxEven"/><text style="dominant-baseline: middle; font-size: 10.2px;" transform="translate(59.095550537109375,101)" y="0" x="0" id="text-entity-students-1a328c67-5d59-56d0-bf8f-611c89a8fa4f-attr-4-name" class="er entityLabel">created_At</text><rect height="22" width="22.68768310546875" y="90" x="115.68775939941406" class="er attributeBoxEven"/><text style="dominant-baseline: middle; font-size: 10.2px;" transform="translate(120.68775939941406,101)" y="0" x="0" id="text-entity-students-1a328c67-5d59-56d0-bf8f-611c89a8fa4f-attr-4-key" class="er entityLabel"/><rect height="22" width="54.095550537109375" y="112" x="0" class="er attributeBoxOdd"/><text style="dominant-baseline: middle; font-size: 10.2px;" transform="translate(5,123)" y="0" x="0" id="text-entity-students-1a328c67-5d59-56d0-bf8f-611c89a8fa4f-attr-5-type" class="er entityLabel">DateTime</text><rect height="22" width="61.59220886230469" y="112" x="54.095550537109375" class="er attributeBoxOdd"/><text style="dominant-baseline: middle; font-size: 10.2px;" transform="translate(59.095550537109375,123)" y="0" x="0" id="text-entity-students-1a328c67-5d59-56d0-bf8f-611c89a8fa4f-attr-5-name" class="er entityLabel">update_At</text><rect height="22" width="22.68768310546875" y="112" x="115.68775939941406" class="er attributeBoxOdd"/><text style="dominant-baseline: middle; font-size: 10.2px;" transform="translate(120.68775939941406,123)" y="0" x="0" id="text-entity-students-1a328c67-5d59-56d0-bf8f-611c89a8fa4f-attr-5-key" class="er entityLabel"/></g><g transform="translate(344.39232635498047,243 )" id="entity-Enrollment-031038f6-86d8-54a9-b02b-7a29c0fc1da1"><rect height="90" width="138.3754425048828" y="0" x="0" class="er entityBox"/><text style="dominant-baseline: middle; text-anchor: middle; font-size: 12px;" transform="translate(69.1877212524414,12)" y="0" x="0" id="text-entity-Enrollment-031038f6-86d8-54a9-b02b-7a29c0fc1da1" class="er entityLabel">Enrollment</text><rect height="22" width="54.095550537109375" y="24" x="0" class="er attributeBoxOdd"/><text style="dominant-baseline: middle; font-size: 10.2px;" transform="translate(5,35)" y="0" x="0" id="text-entity-Enrollment-031038f6-86d8-54a9-b02b-7a29c0fc1da1-attr-1-type" class="er entityLabel">String</text><rect height="22" width="61.59220886230469" y="24" x="54.095550537109375" class="er attributeBoxOdd"/><text style="dominant-baseline: middle; font-size: 10.2px;" transform="translate(59.095550537109375,35)" y="0" x="0" id="text-entity-Enrollment-031038f6-86d8-54a9-b02b-7a29c0fc1da1-attr-1-name" class="er entityLabel">id</text><rect height="22" width="22.68768310546875" y="24" x="115.68775939941406" class="er attributeBoxOdd"/><text style="dominant-baseline: middle; font-size: 10.2px;" transform="translate(120.68775939941406,35)" y="0" x="0" id="text-entity-Enrollment-031038f6-86d8-54a9-b02b-7a29c0fc1da1-attr-1-key" class="er entityLabel">PK</text><rect height="22" width="54.095550537109375" y="46" x="0" class="er attributeBoxEven"/><text style="dominant-baseline: middle; font-size: 10.2px;" transform="translate(5,57)" y="0" x="0" id="text-entity-Enrollment-031038f6-86d8-54a9-b02b-7a29c0fc1da1-attr-2-type" class="er entityLabel">DateTime</text><rect height="22" width="61.59220886230469" y="46" x="54.095550537109375" class="er attributeBoxEven"/><text style="dominant-baseline: middle; font-size: 10.2px;" transform="translate(59.095550537109375,57)" y="0" x="0" id="text-entity-Enrollment-031038f6-86d8-54a9-b02b-7a29c0fc1da1-attr-2-name" class="er entityLabel">created_At</text><rect height="22" width="22.68768310546875" y="46" x="115.68775939941406" class="er attributeBoxEven"/><text style="dominant-baseline: middle; font-size: 10.2px;" transform="translate(120.68775939941406,57)" y="0" x="0" id="text-entity-Enrollment-031038f6-86d8-54a9-b02b-7a29c0fc1da1-attr-2-key" class="er entityLabel"/><rect height="22" width="54.095550537109375" y="68" x="0" class="er attributeBoxOdd"/><text style="dominant-baseline: middle; font-size: 10.2px;" transform="translate(5,79)" y="0" x="0" id="text-entity-Enrollment-031038f6-86d8-54a9-b02b-7a29c0fc1da1-attr-3-type" class="er entityLabel">DateTime</text><rect height="22" width="61.59220886230469" y="68" x="54.095550537109375" class="er attributeBoxOdd"/><text style="dominant-baseline: middle; font-size: 10.2px;" transform="translate(59.095550537109375,79)" y="0" x="0" id="text-entity-Enrollment-031038f6-86d8-54a9-b02b-7a29c0fc1da1-attr-3-name" class="er entityLabel">update_At</text><rect height="22" width="22.68768310546875" y="68" x="115.68775939941406" class="er attributeBoxOdd"/><text style="dominant-baseline: middle; font-size: 10.2px;" transform="translate(120.68775939941406,79)" y="0" x="0" id="text-entity-Enrollment-031038f6-86d8-54a9-b02b-7a29c0fc1da1-attr-3-key" class="er entityLabel"/></g><rect height="14" width="66.259765625" y="665" x="121.2216796875" class="er relationshipLabelBox"/><text style="text-anchor: middle; dominant-baseline: middle; font-size: 12px;" y="672" x="154.3515625" id="rel1" class="er relationshipLabel">enum:status</text><rect height="14" width="23.1484375" y="388.03277587890625" x="95.9649658203125" class="er relationshipLabelBox"/><text style="text-anchor: middle; dominant-baseline: middle; font-size: 12px;" y="395.03277587890625" x="107.5391845703125" id="rel2" class="er relationshipLabel">trail</text><rect height="14" width="35.458984375" y="175" x="86.6220703125" class="er relationshipLabelBox"/><text style="text-anchor: middle; dominant-baseline: middle; font-size: 12px;" y="182" x="104.3515625" id="rel3" class="er relationshipLabel">course</text><rect height="14" width="41.873046875" y="390.3294982910156" x="438.1637268066406" class="er relationshipLabelBox"/><text style="text-anchor: middle; dominant-baseline: middle; font-size: 12px;" y="397.3294982910156" x="459.1002502441406" id="rel4" class="er relationshipLabel">Student</text><rect height="14" width="25.0390625" y="378.4973449707031" x="281.15008544921875" class="er relationshipLabelBox"/><text style="text-anchor: middle; dominant-baseline: middle; font-size: 12px;" y="385.4973449707031" x="293.66961669921875" id="rel5" class="er relationshipLabel">Trail</text></svg>